HIERARCHY
ROOT Hips
{
	OFFSET 0.000000 0.000000 0.000000
	CHANNELS 6 Xposition Yposition Zposition Zrotation Yrotation Xrotation 
	JOINT LowerBack
	{
		OFFSET 0.000000 0.000000 0.000000
		CHANNELS 3 Zrotation Yrotation Xrotation
		JOINT Spine
		{
			OFFSET 0.028270 2.035590 -0.193380
			CHANNELS 3 Zrotation Yrotation Xrotation
			JOINT Spine1
			{
				OFFSET 0.056720 2.048850 -0.042750
				CHANNELS 3 Zrotation Yrotation Xrotation
				JOINT Neck
				{
					OFFSET 0.000000 0.000000 0.000000
					CHANNELS 3 Zrotation Yrotation Xrotation
					JOINT Neck1
					{
						OFFSET -0.054170 1.746240 0.172020
						CHANNELS 3 Zrotation Yrotation Xrotation
						JOINT Head
						{
							OFFSET 0.104070 1.761360 -0.123970
							CHANNELS 3 Zrotation Yrotation Xrotation
							End Site
							{
								OFFSET 0.000000 0.000000 0.000000
							}
						}
					}
				}
				JOINT LeftShoulder
				{
					OFFSET 0.000000 0.000000 0.000000
					CHANNELS 3 Zrotation Yrotation Xrotation
					JOINT LeftArm
					{
						OFFSET 3.362410 1.200890 -0.311210
						CHANNELS 3 Zrotation Yrotation Xrotation
						JOINT LeftForeArm
						{
							OFFSET 4.983000 -0.000000 -0.000000
							CHANNELS 3 Zrotation Yrotation Xrotation
							JOINT LeftHand
							{
								OFFSET 3.483560 -0.000000 -0.000000
								CHANNELS 3 Zrotation Yrotation Xrotation
								JOINT LeftFingerBase
								{
									OFFSET 0.000000 0.000000 0.000000
									CHANNELS 3 Zrotation Yrotation Xrotation
									JOINT LeftHandIndex1
									{
										OFFSET 0.715260 -0.000000 -0.000000
										CHANNELS 3 Zrotation Yrotation Xrotation
										End Site
										{
											OFFSET 0.000000 0.000000 0.000000
										}
									}
								}
								JOINT LThumb
								{
									OFFSET 0.000000 0.000000 0.000000
									CHANNELS 3 Zrotation Yrotation Xrotation
									End Site
									{
										OFFSET 0.000000 0.000000 0.000000
									}
								}
							}
						}
					}
				}
				JOINT RightShoulder
				{
					OFFSET 0.000000 0.000000 0.000000
					CHANNELS 3 Zrotation Yrotation Xrotation
					JOINT RightArm
					{
						OFFSET -3.136600 1.374050 -0.404650
						CHANNELS 3 Zrotation Yrotation Xrotation
						JOINT RightForeArm
						{
							OFFSET -5.241900 -0.000000 -0.000000
							CHANNELS 3 Zrotation Yrotation Xrotation
							JOINT RightHand
							{
								OFFSET -3.444170 -0.000000 -0.000000
								CHANNELS 3 Zrotation Yrotation Xrotation
								JOINT RightFingerBase
								{
									OFFSET 0.000000 0.000000 0.000000
									CHANNELS 3 Zrotation Yrotation Xrotation
									JOINT RightHandIndex1
									{
										OFFSET -0.622530 -0.000000 -0.000000
										CHANNELS 3 Zrotation Yrotation Xrotation
										End Site
										{
											OFFSET 0.000000 0.000000 0.000000
										}
									}
								}
								JOINT RThumb
								{
									OFFSET 0.000000 0.000000 0.000000
									CHANNELS 3 Zrotation Yrotation Xrotation
									End Site
									{
										OFFSET 0.000000 0.000000 0.000000
									}
								}
							}
						}
					}
				}
			}
		}
	}
}
}
MOTION
Frames: 12
Frame Time: 0.008333
2.494950 16.994819 0.873936 -0.439358 78.708873 3.055948 -0.074875 2.171258 -2.557140 -0.259198 2.114638 -2.625865 -3.522725 2.031294 3.352072 6.548366 -11.610787 -11.035279 -0.603858 0.001880 -0.895922 0.000000 0.000000 0.000000 -8.204243 31.645745 1.805240 -80.904562 31.270208 -7.474664 -4.370183 -13.898944 -0.035968 -7.775959 12.110706 -0.831659 -0.062790 -0.164102 -0.000000 0.000000 0.000000 0.000000 0.000000 0.000000 0.000000 3.878438 -5.528187 0.607542 40.168554 10.557703 13.441375 2.096074 41.283862 0.010874 3.965588 4.168240 0.146629 0.043503 -0.099450 0.000000 0.000000 0.000000 0.000000 0.000000 0.000000 0.000000 
2.756698 16.987183 0.879129 0.729113 78.628969 3.834504 -0.427647 2.109738 -2.377258 -0.328665 2.086428 -2.592800 -3.542821 2.005269 3.356787 6.751296 -11.742298 -11.064774 -0.596048 0.003328 -0.905571 0.000000 0.000000 0.000000 -8.220488 31.741833 1.828115 -81.276408 31.091263 -7.902942 -4.397916 -13.794876 -0.037515 -8.256812 12.637867 -0.922285 -0.060292 -0.165486 -0.000000 0.000000 0.000000 0.000000 0.000000 0.000000 0.000000 4.108185 -5.650585 0.582634 40.245920 10.122292 13.672571 2.082627 41.646514 0.010754 4.046349 4.156367 0.149223 0.041957 -0.097624 0.000000 0.000000 0.000000 0.000000 0.000000 0.000000 0.000000 
3.015064 16.979158 0.886403 2.048049 78.624503 4.770090 -0.822794 2.009541 -2.170873 -0.404283 2.023287 -2.559115 -3.563090 1.944118 3.350624 6.965260 -11.875453 -11.096343 -0.595369 0.004278 -0.915806 0.000000 0.000000 0.000000 -8.193922 31.744209 1.856154 -81.615381 30.789970 -8.361482 -4.416982 -13.674316 -0.038496 -8.572866 13.038343 -0.988402 -0.058899 -0.165568 -0.000000 0.000000 0.000000 0.000000 0.000000 0.000000 0.000000 4.362664 -5.786104 0.554967 40.433648 9.654262 13.887737 2.070645 42.030842 0.010647 4.060498 4.169137 0.150222 0.041404 -0.096256 0.000000 0.000000 0.000000 0.000000 0.000000 0.000000 0.000000 
3.269489 16.970705 0.895712 3.484351 78.699678 5.847582 -1.247830 1.875134 -1.947667 -0.483855 1.927985 -2.526759 -3.583248 1.850479 3.329238 7.180817 -12.004077 -11.123916 -0.601923 0.004614 -0.924925 0.000000 0.000000 0.000000 -8.133386 31.651165 1.878345 -81.907488 30.395188 -8.715467 -4.414475 -13.478700 -0.037957 -8.617699 12.884131 -0.981801 -0.058117 -0.163199 -0.000000 0.000000 0.000000 0.000000 0.000000 0.000000 0.000000 4.628468 -5.936544 0.525970 40.741209 9.141461 14.078376 2.061761 42.430836 0.010565 4.023816 4.201785 0.149925 0.041722 -0.095207 0.000000 0.000000 0.000000 0.000000 0.000000 0.000000 0.000000 
3.519532 16.961996 0.907196 5.075983 78.852556 7.110467 -1.704706 1.702216 -1.711805 -0.567256 1.795933 -2.494515 -3.602629 1.719772 3.302812 7.400089 -12.137701 -11.155454 -0.614826 0.004529 -0.935048 0.000000 0.000000 0.000000 -8.018954 31.457396 1.913084 -82.154996 29.851225 -9.120631 -4.414788 -13.353428 -0.037833 -8.618541 13.022053 -0.992101 -0.058591 -0.160759 -0.000000 0.000000 0.000000 0.000000 0.000000 0.000000 0.000000 4.910205 -6.099596 0.494114 41.161035 8.611609 14.261695 2.056063 42.827955 0.010511 3.947257 4.254382 0.148731 0.042765 -0.094408 0.000000 0.000000 0.000000 0.000000 0.000000 0.000000 0.000000 
3.765214 16.953282 0.920521 6.790620 79.077843 8.532308 -2.175403 1.497993 -1.466374 -0.651724 1.632715 -2.462583 -3.622309 1.557696 3.268581 7.616342 -12.278283 -11.186026 -0.634038 0.003943 -0.944870 0.000000 0.000000 0.000000 -7.862961 31.174238 1.946931 -82.337666 29.192463 -9.424093 -4.405710 -13.244925 -0.037191 -8.484470 13.018273 -0.975893 -0.059741 -0.157134 -0.000000 0.000000 0.000000 0.000000 0.000000 0.000000 0.000000 5.201733 -6.284588 0.461417 41.692763 8.065476 14.438261 2.055389 43.205724 0.010490 3.851323 4.323414 0.147340 0.044338 -0.093673 0.000000 0.000000 0.000000 0.000000 0.000000 0.000000 0.000000 
4.006809 16.945042 0.935036 8.559717 79.360325 10.046782 -2.633185 1.269810 -1.214812 -0.733150 1.443604 -2.431873 -3.644996 1.369634 3.224224 7.822730 -12.412836 -11.211014 -0.660197 0.002704 -0.953061 0.000000 0.000000 0.000000 -7.677938 30.800771 1.979448 -82.449327 28.456171 -9.525895 -4.382770 -13.257059 -0.036248 -8.210214 13.022710 -0.943778 -0.061372 -0.153102 -0.000000 0.000000 0.000000 0.000000 0.000000 0.000000 0.000000 5.495783 -6.473986 0.428654 42.338241 7.480369 14.583489 2.061881 43.555972 0.010516 3.766803 4.400636 0.146450 0.046126 -0.092848 0.000000 0.000000 0.000000 0.000000 0.000000 0.000000 0.000000 
4.244844 16.937830 0.950341 10.362190 79.683050 11.629851 -3.064055 1.025548 -0.959719 -0.809580 1.235572 -2.401537 -3.671427 1.162805 3.173137 8.016738 -12.545159 -11.229991 -0.693932 0.000744 -0.959562 0.000000 0.000000 0.000000 -7.469060 30.359993 2.002542 -82.464988 27.618513 -9.517310 -4.356777 -13.265132 -0.034838 -7.882627 12.797439 -0.889555 -0.063245 -0.147698 -0.000000 0.000000 0.000000 0.000000 0.000000 0.000000 0.000000 5.795208 -6.672826 0.396225 43.087710 6.865436 14.696626 2.076566 43.857517 0.010586 3.710298 4.483199 0.146861 0.047931 -0.091780 0.000000 0.000000 0.000000 0.000000 0.000000 0.000000 0.000000 
4.479963 16.932373 0.965841 12.134992 80.022910 13.216753 -3.449070 0.773953 -0.706497 -0.878653 1.016059 -2.372139 -3.704374 0.944802 3.116488 8.196765 -12.676294 -11.241315 -0.735593 -0.002009 -0.963874 0.000000 0.000000 0.000000 -7.246646 29.865957 2.012814 -82.375202 26.703222 -9.356094 -4.327496 -13.314141 -0.033059 -7.519219 12.381085 -0.819924 -0.065204 -0.141299 -0.000000 0.000000 0.000000 0.000000 0.000000 0.000000 0.000000 6.103181 -6.879143 0.365018 43.931490 6.225164 14.768113 2.100867 44.089561 0.010699 3.695874 4.566892 0.148773 0.049620 -0.090381 0.000000 0.000000 0.000000 0.000000 0.000000 0.000000 0.000000 
4.712944 16.929335 0.981094 13.821588 80.355884 14.749318 -3.776134 0.522992 -0.462202 -0.939195 0.792203 -2.344082 -3.746203 0.722867 3.057867 8.364373 -12.813920 -11.245712 -0.785093 -0.005552 -0.966144 0.000000 0.000000 0.000000 -7.017779 29.340283 2.007365 -82.172866 25.725667 -9.020481 -4.295113 -13.437694 -0.031016 -7.128614 11.814496 -0.740786 -0.067210 -0.134248 -0.000000 0.000000 0.000000 0.000000 0.000000 0.000000 0.000000 6.427409 -7.098132 0.335444 44.855578 5.579050 14.798046 2.135558 44.225770 0.010851 3.722955 4.650045 0.152484 0.051217 -0.088620 0.000000 0.000000 0.000000 0.000000 0.000000 0.000000 0.000000 
4.944526 16.929438 0.995679 15.334258 80.657513 16.140482 -4.032782 0.280887 -0.236662 -0.989715 0.571355 -2.318678 -3.798734 0.504334 2.999851 8.519559 -12.959767 -11.242967 -0.842340 -0.009897 -0.966211 0.000000 0.000000 0.000000 -6.791641 28.801446 1.984385 -81.854455 24.704115 -8.508989 -4.259552 -13.668872 -0.028799 -6.710798 11.140958 -0.656643 -0.069281 -0.126858 -0.000000 0.000000 0.000000 0.000000 0.000000 0.000000 0.000000 6.770947 -7.328238 0.307409 45.850448 4.934705 14.772717 2.181445 44.245050 0.011033 3.787909 4.728948 0.157596 0.052785 -0.086508 0.000000 0.000000 0.000000 0.000000 0.000000 0.000000 0.000000 
5.175444 16.933258 1.009213 16.575031 80.906755 17.293650 -4.208844 0.055539 -0.041355 -1.029032 0.360656 -2.298884 -3.864037 0.296181 2.940274 8.658889 -13.090353 -11.227971 -0.908888 -0.015289 -0.962532 0.000000 0.000000 0.000000 -6.575761 28.254401 1.944764 -81.421461 23.667507 -7.841817 -4.220407 -14.042258 -0.026489 -6.258008 10.405692 -0.570995 -0.071481 -0.119403 -0.000000 0.000000 0.000000 0.000000 0.000000 0.000000 0.000000 7.129764 -7.540000 0.279947 46.918471 4.255625 14.635628 2.239349 44.145964 0.011234 3.894708 4.791075 0.164107 0.054299 -0.084071 0.000000 0.000000 0.000000 0.000000 0.000000 0.000000 0.000000 
